<svg id="Layer_1" data-name="Layer 1" xmlns="http://www.w3.org/2000/svg" viewBox="0 0 295.87 43.24"><defs><style>.cls-1{fill:#fed136;}</style></defs><title>navbar-logo1</title><path class="cls-1" d="M5.55,12.54a6.42,6.42,0,0,0,2-.66A53.37,53.37,0,0,0,12.85,8.6l3.61-2.46c2.16-1.36,3.64-2,4.43-2a3.27,3.27,0,0,1,2,.68,2.06,2.06,0,0,1,.88,1.7c0,.47-.85,2.45-2.54,6s-2.9,5.87-3.61,7.07q3.9.36,9.76.74c.35-.8,1.46-3.22,3.32-7.28S34,5.83,35.07,3.72Q39,4.22,39,5.9q0,.78-2.85,6.39t-4.33,8.2l1.6,0a4.56,4.56,0,0,1-1.92.82c-1,2.32-1.73,4.16-2.22,5.5a37.1,37.1,0,0,0-1.6,5.69Q27,36,25,36c-2.35,0-3.53-.47-3.53-1.39s1.76-5.2,5.29-12.63q-4.18.29-10.29.2-3.36,7.1-3.36,9.92a1.47,1.47,0,0,1-.84,1.34,3.82,3.82,0,0,1-1.87.47,2.52,2.52,0,0,1-1.76-.68,2.17,2.17,0,0,1-.74-1.66q0-1.56,4.67-11.27T20,5.57c-.14.08-.5.33-1.09.74l-1.46,1L15.76,8.4,13.9,9.61l-1.83,1.14c-.68.43-1.28.78-1.8,1.07s-1,.56-1.56.82a13.68,13.68,0,0,1-1.35.6,3.11,3.11,0,0,1-.94.2Q5.6,13.44,5.55,12.54Z"/><path class="cls-1" d="M44.87,17.66a44.76,44.76,0,0,1-2.56,4c-1.16,1.65-2,2.85-2.4,3.59q-2,3.32-2,5.24c0,1,.31,1.48.91,1.48q2.86,0,8.65-10.25c.27-.44.6-1,1-1.82s.64-1.29.78-1.54a2.57,2.57,0,0,1,.66-.66,1.42,1.42,0,0,1,.82-.33,4.3,4.3,0,0,1,2,.72Q54,18.77,54,19.34c-.28.58-.66,1.33-1.15,2.26s-.95,1.8-1.36,2.6-.77,1.62-1.1,2.44a13.53,13.53,0,0,0-1.23,5c0,1.73-.49,2.59-1.48,2.59a3.75,3.75,0,0,1-2.17-.49,2.19,2.19,0,0,1-.66-1.85,6.38,6.38,0,0,1,.25-1.78c.16-.59.47-1.5.92-2.73S46.84,25,47.17,24a35.78,35.78,0,0,1-4.59,6.7q-2.67,3.06-4.39,3.06a3.86,3.86,0,0,1-2.77-1,3.54,3.54,0,0,1-1-2.68q0-3.24,3.28-8.9c.11-.19.48-.74,1.11-1.64S40,17.83,40.4,17.09a3.87,3.87,0,0,0,.66-1.56,10.2,10.2,0,0,1,2.42.86C44.3,16.8,44.76,17.23,44.87,17.66Z"/><path class="cls-1" d="M52.58,31.81q0-.87,1.85-4.39t2-4.06q2-5.57,1.43-8.24a4.84,4.84,0,0,1,2,.74A3.23,3.23,0,0,1,61,17a3.37,3.37,0,0,1,.28,1.62,9.75,9.75,0,0,1-.18,1.82c-.11.53-.29,1.25-.53,2.15.68-.93,1.23-1.63,1.64-2.11s1-1.07,1.68-1.78a7.29,7.29,0,0,1,2.19-1.56,5.69,5.69,0,0,1,2.32-.49c2.48,0,3.58,1.82,3.28,5.45.9-1.28,1.64-2.27,2.21-2.95a9.8,9.8,0,0,1,2.22-1.89,5.15,5.15,0,0,1,2.78-.86,3.51,3.51,0,0,1,2.3.7,3,3,0,0,1,1.09,1.8,9,9,0,0,1,.16,2.26,9.65,9.65,0,0,1-.39,2.25q-.28,1-1,2.91a34,34,0,0,0-1.17,3.41,10.81,10.81,0,0,0-.43,3,1.15,1.15,0,0,1-.7,1,3.35,3.35,0,0,1-1.56.36,2.37,2.37,0,0,1-1.68-.71,2.26,2.26,0,0,1-.74-1.66,10.78,10.78,0,0,1,.58-3.49A30.16,30.16,0,0,1,77,24.37c.71-1.44,1.19-2.47,1.43-3.1a7.23,7.23,0,0,0,.37-1q.16-.56.33-1.32a2.34,2.34,0,0,0,0-1.27.74.74,0,0,0-.76-.51c-1,0-2,.63-3.2,1.89a22.49,22.49,0,0,0-2.87,3.73c-.52.85-1,1.78-1.54,2.79s-.9,1.83-1.19,2.46-.71,1.57-1.27,2.85-1,2.13-1.16,2.6a7.8,7.8,0,0,1-2.63-.33A1.19,1.19,0,0,1,63.61,32a6.06,6.06,0,0,1,.14-1.25,6.94,6.94,0,0,1,.5-1.39c.23-.51.42-.9.57-1.19s.39-.72.72-1.29l.61-1.07c.11-.25.23-.49.35-.74L67,24c.24-.47.43-.91.6-1.34s.34-.89.53-1.41a10,10,0,0,0,.41-1.37,10.36,10.36,0,0,0,.17-1.13,1.18,1.18,0,0,0-.19-.82.76.76,0,0,0-.63-.29,5,5,0,0,0-3.28,1.58,16.91,16.91,0,0,0-3.1,3.9q-1.38,2.31-2.32,4.32A34.18,34.18,0,0,0,57.75,31a4.3,4.3,0,0,1-.8,1.78,2.15,2.15,0,0,1-1.62.51C53.5,33.28,52.58,32.79,52.58,31.81Z"/><path class="cls-1" d="M103.22,21.6a4.82,4.82,0,0,1-.15,1.17,8.83,8.83,0,0,1-.41,1.27,8.37,8.37,0,0,0-.35,1,16.25,16.25,0,0,0-.53,4.19,9.83,9.83,0,0,0,.16,1.41,8.83,8.83,0,0,1,.17,1.37c0,.5-.3.86-.9,1.09a5,5,0,0,1-1.77.35,1.67,1.67,0,0,1-1.57-.64,3.91,3.91,0,0,1-.39-2c0-1,.1-2.72.32-5.2Q91,33.41,86.65,33.41q-3.29,0-3.28-3.12a9.7,9.7,0,0,1,1.38-4.63,19,19,0,0,1,3.42-4.51,19.76,19.76,0,0,1,4.55-3.34,10,10,0,0,1,4.63-1.34,6.49,6.49,0,0,1,3.24.86c.41.33.47.65.17,1a3.63,3.63,0,0,0-.91-.13q-2.37,0-5.31,2.34A22,22,0,0,0,89.62,26a10.86,10.86,0,0,0-2,5.51c0,.44.16.66.49.66,1.28,0,3.16-1.34,5.64-4A36.3,36.3,0,0,0,99,21.39a.93.93,0,0,0,.15-.22,2,2,0,0,1,.14-.25l.14-.22a1.49,1.49,0,0,1,.15-.21l.16-.16a1.63,1.63,0,0,1,.21-.19,1.17,1.17,0,0,1,.2-.12.73.73,0,0,1,.25-.08l.28,0a3.17,3.17,0,0,1,1.62.57Q103.22,21.06,103.22,21.6Z"/><path class="cls-1" d="M112.32,22.17c.9-1.17,1.53-2,1.9-2.42s.93-1,1.66-1.76a6.88,6.88,0,0,1,2.1-1.52,5.5,5.5,0,0,1,2.13-.41q5.61,0,2.25,10a20,20,0,0,0-1.43,6.31q0,.49-.72,1a2.44,2.44,0,0,1-1.33.48,2.36,2.36,0,0,1-1.72-.68,2.26,2.26,0,0,1-.7-1.7,12.36,12.36,0,0,1,.51-3.47,29,29,0,0,1,1.48-3.87q1-2.13,1.29-3.12c1-2.68.93-4-.17-4q-2.66,0-5.61,4.64a45.25,45.25,0,0,0-4.51,8.81c0,.11-.09.37-.17.76a7.66,7.66,0,0,1-.26,1,2.32,2.32,0,0,1-.35.63c-.28.44-1,.66-2,.66a2.38,2.38,0,0,1-1.68-.45,2.32,2.32,0,0,1-.45-1.64,6,6,0,0,1,.57-2.07q.57-1.38,1.5-3.18c.61-1.2,1-1.93,1.08-2.17q2.63-5.5,1.89-9.31a6.4,6.4,0,0,1,1.74.51,2.48,2.48,0,0,1,1.07.94,5.42,5.42,0,0,1,.51,1.15,4.07,4.07,0,0,1,.08,1.5c-.05.63-.12,1.17-.2,1.64S112.51,21.41,112.32,22.17Z"/><path class="cls-1" d="M141.1,11.55a26.59,26.59,0,0,1,7.07-4.75A18.67,18.67,0,0,1,156,5a13.16,13.16,0,0,1,6.83,1.83A5.72,5.72,0,0,1,166,12a6.32,6.32,0,0,1-1.21,3.63,11.53,11.53,0,0,1-3.12,3,26.64,26.64,0,0,1-3.94,2.17,23.5,23.5,0,0,1-4,1.39,35.73,35.73,0,0,1,2,3.16c.2.27.62,1,1.28,2.09s1.19,2,1.61,2.67a23.22,23.22,0,0,0,1.62,2.13A7.74,7.74,0,0,0,162,33.9c-1.29,1.34-2.43,2-3.44,2-1.4,0-2.93-1.81-4.6-5.41a68.35,68.35,0,0,1-2.91-8,2.1,2.1,0,0,1-2.05-.25,98.75,98.75,0,0,0-5.29,10.34c0,.05-.08.18-.16.39l-.18.43-.21.41a4.19,4.19,0,0,1-.25.43l-.26.39a1.68,1.68,0,0,1-.31.36,2.85,2.85,0,0,1-.33.25,1.76,1.76,0,0,1-.39.19,1.4,1.4,0,0,1-.41.06c-2,0-3-.6-3-1.81s2.15-5.32,6.46-12.44,7.18-11.43,8.63-12.94a5.39,5.39,0,0,1,2,.56,1.47,1.47,0,0,1,.94,1.37,26.22,26.22,0,0,1-2.62,4.59l-3.57,5.62a3.14,3.14,0,0,1,2,.66,18.12,18.12,0,0,0,6.35-4.66,9.71,9.71,0,0,0,2.87-6.54,2.89,2.89,0,0,0-1.6-2.74,7.22,7.22,0,0,0-3.52-.86,19.05,19.05,0,0,0-11.89,4.05,8.07,8.07,0,0,0-.78.64c-.36.31-.68.58-1,.8a1.26,1.26,0,0,1-.71.33A.79.79,0,0,1,141.1,11.55Z"/><path class="cls-1" d="M180.87,25.74c.3-.46.51-.7.61-.7s.13.13.13.37a7.74,7.74,0,0,1-1.07,1.76,23.66,23.66,0,0,1-5,4.7,9.7,9.7,0,0,1-5.45,2.23q-6,0-5.95-5.08a11.13,11.13,0,0,1,2.28-6.19,21.61,21.61,0,0,1,5.06-5.37,4.94,4.94,0,0,1,2.54-1.23,8.63,8.63,0,0,1,2.28.37,5.43,5.43,0,0,1,1.95.86c1.12.19,1.68,1,1.68,2.38a3.11,3.11,0,0,1-1.05,2.37,6.12,6.12,0,0,1-2.7,1.42,23.16,23.16,0,0,1-3,.59,21.13,21.13,0,0,1-2.6.17q-2.13,3.93-2.13,6.27,0,2.13,1.8,2.13,2.29,0,5.64-2.44A22.68,22.68,0,0,0,180.87,25.74ZM178,18a5.65,5.65,0,0,0-3.77,1.7A22.24,22.24,0,0,0,171,23.9a18.87,18.87,0,0,0,4.75-1.56A4.92,4.92,0,0,0,178,18Z"/><path class="cls-1" d="M195.79,17.33a12.83,12.83,0,0,0-3.67.85,16.51,16.51,0,0,0-4.22,2.21q-2,1.41-2,2.85a1,1,0,0,0,.41.82,1.51,1.51,0,0,0,.86.29c.5,0,1.25,0,2.26-.11s1.76-.1,2.25-.1a5.59,5.59,0,0,1,3.26,1,3.11,3.11,0,0,1,1.46,2.68,4.34,4.34,0,0,1-1.62,3.38,9.21,9.21,0,0,1-3.67,2,15.26,15.26,0,0,1-4.1.58,6.77,6.77,0,0,1-7-5,11.56,11.56,0,0,0,6.23,1.88,13,13,0,0,0,2.93-.37A8.7,8.7,0,0,0,192.27,29a2.8,2.8,0,0,0,1.43-2.3c0-.71-.41-1.17-1.23-1.39a7.47,7.47,0,0,0-2.07-.17c-.5.06-1.18.16-2,.29a13.13,13.13,0,0,1-2,.21,3.8,3.8,0,0,1-2.52-.84,2.87,2.87,0,0,1-1-2.32,5.44,5.44,0,0,1,1.9-3.75,15.64,15.64,0,0,1,4.37-3.08,10.28,10.28,0,0,1,4.31-1.17,4.15,4.15,0,0,1,2.87,1.44,1.84,1.84,0,0,1,1.06.57,1.53,1.53,0,0,1,.41,1,3.44,3.44,0,0,1-1,2.09,9.23,9.23,0,0,1-2.22,1.89A15.73,15.73,0,0,0,195.79,17.33Z"/><path class="cls-1" d="M218.3,23.9a1.76,1.76,0,0,1-.72,1.25,2.27,2.27,0,0,1-1.53.63,4.32,4.32,0,0,1-2.87-1.27c-.66,1-1.34,1.89-2,2.79s-1.53,1.89-2.48,3a15.45,15.45,0,0,1-2.89,2.6,4.8,4.8,0,0,1-2.61,1,6.92,6.92,0,0,1-3.56-.84,2.92,2.92,0,0,1-1.44-2.73,13.26,13.26,0,0,1,2-6.7,23.55,23.55,0,0,1,4.8-5.89q2.53-2.29,4.63-2.29a4.15,4.15,0,0,1,2.58,1.35l.33-.63c.19-.37.36-.69.51-.95s.33-.54.54-.86a3.17,3.17,0,0,1,.63-.74,1,1,0,0,1,.62-.26c.87,0,1.31.9,1.31,2.7a8.52,8.52,0,0,1-.74,2.91,8.51,8.51,0,0,0-.74,2.83,4.51,4.51,0,0,0,.47,2,1.61,1.61,0,0,0,1.54,1,1.75,1.75,0,0,0,.94-.4A2,2,0,0,1,218.3,23.9Zm-7.05-3.24a18.6,18.6,0,0,1,.33-2.51c-2.05.85-4.12,2.77-6.19,5.75s-3.12,5.48-3.12,7.5a.69.69,0,0,0,.78.78,4.56,4.56,0,0,0,2.52-.95,13.45,13.45,0,0,0,2.69-2.5c.87-1,1.6-1.94,2.19-2.72s1.15-1.6,1.7-2.44A5.29,5.29,0,0,1,211.25,20.66Z"/><path class="cls-1" d="M226.75,17.66a45.31,45.31,0,0,1-2.57,4c-1.16,1.65-2,2.85-2.39,3.59-1.32,2.21-2,4-2,5.24,0,1,.3,1.48.9,1.48q2.86,0,8.65-10.25c.27-.44.6-1,1-1.82l.78-1.54a2.57,2.57,0,0,1,.66-.66,1.42,1.42,0,0,1,.82-.33,4.3,4.3,0,0,1,2,.72q1.23.72,1.23,1.29c-.27.58-.66,1.33-1.15,2.26s-.94,1.8-1.35,2.6-.78,1.62-1.11,2.44a13.53,13.53,0,0,0-1.23,5c0,1.73-.49,2.59-1.47,2.59a3.77,3.77,0,0,1-2.18-.49,2.19,2.19,0,0,1-.65-1.85,6.75,6.75,0,0,1,.24-1.78c.17-.59.47-1.5.92-2.73S228.71,25,229,24a34.86,34.86,0,0,1-4.59,6.7q-2.67,3.06-4.39,3.06a3.84,3.84,0,0,1-2.76-1,3.54,3.54,0,0,1-1-2.68q0-3.24,3.28-8.9c.11-.19.48-.74,1.11-1.64s1.16-1.72,1.6-2.46a4,4,0,0,0,.65-1.56,10.05,10.05,0,0,1,2.42.86C226.17,16.8,226.64,17.23,226.75,17.66Z"/><path class="cls-1" d="M242.29,23.07c.19-.21.55-.67,1.08-1.37l1.23-1.58c.29-.35.71-.82,1.25-1.39a9.91,9.91,0,0,1,1.46-1.31,6.92,6.92,0,0,1,1.54-.8,4.92,4.92,0,0,1,1.76-.35,3,3,0,0,1,2.23.9,3.09,3.09,0,0,1,.89,2.26,5.53,5.53,0,0,1-1.32,3.09,20,20,0,0,1-2.83,3.14c-1.42-.08-2.13-.44-2.13-1.07A6.82,6.82,0,0,1,249,21.41a6.71,6.71,0,0,0,1.52-3.26c0-.51-.28-.77-.82-.77a4.73,4.73,0,0,0-3.08,1.7,21.9,21.9,0,0,0-3.24,4.16q-1.51,2.46-2.6,4.53c-.73,1.38-1.28,2.54-1.66,3.46l-.15.43c-.06.21-.12.37-.16.48l-.18.47a2.79,2.79,0,0,1-.25.47c-.08.11-.18.22-.29.35a.93.93,0,0,1-.37.26,1,1,0,0,1-.41.09,2.1,2.1,0,0,1-1.78-1,3.72,3.72,0,0,1-.68-2.19,8.05,8.05,0,0,1,.74-3c.27-.66.83-1.84,1.66-3.55a33.34,33.34,0,0,0,1.85-4.43,12.6,12.6,0,0,0,.59-3.79,4.6,4.6,0,0,0-.16-1.07,4.94,4.94,0,0,1,2.6.88,2.49,2.49,0,0,1,1.13,2.12A23,23,0,0,1,242.29,23.07Z"/><path class="cls-1" d="M268,18.44a8.11,8.11,0,0,0-4.9,1.93A15.87,15.87,0,0,0,259,25a9.73,9.73,0,0,0-1.58,4.84c0,1.61.66,2.42,2,2.42a10.09,10.09,0,0,0,4.82-1.62,28.68,28.68,0,0,0,4.77-3.38,6.2,6.2,0,0,1,1.07-.95c-.49,1.31-2,2.91-4.41,4.78s-4.25,2.81-5.43,2.81A8.4,8.4,0,0,1,255,32.4a5.15,5.15,0,0,1-2-4.45q0-5.7,6.85-10.49a7.26,7.26,0,0,1,3.52-1.56,7,7,0,0,1,2.69.66,6.06,6.06,0,0,1,2.27,1.51,1.66,1.66,0,0,1,1.4,1.64,3.71,3.71,0,0,1-1.15,2.16,9.45,9.45,0,0,1-2.38,2A34.08,34.08,0,0,0,268,18.44Z"/><path class="cls-1" d="M286,25.74c.3-.46.51-.7.62-.7s.12.13.12.37a7.35,7.35,0,0,1-1.07,1.76,23.42,23.42,0,0,1-5,4.7,9.67,9.67,0,0,1-5.45,2.23q-5.94,0-5.94-5.08a11.11,11.11,0,0,1,2.27-6.19,22,22,0,0,1,5.06-5.37,5,5,0,0,1,2.55-1.23,8.63,8.63,0,0,1,2.27.37,5.43,5.43,0,0,1,1.95.86c1.12.19,1.68,1,1.68,2.38a3.11,3.11,0,0,1-1.05,2.37,6,6,0,0,1-2.7,1.42,23.37,23.37,0,0,1-3,.59,21.29,21.29,0,0,1-2.61.17q-2.13,3.93-2.13,6.27,0,2.13,1.8,2.13c1.54,0,3.41-.81,5.64-2.44A22.45,22.45,0,0,0,286,25.74ZM283.16,18a5.67,5.67,0,0,0-3.77,1.7,22.24,22.24,0,0,0-3.24,4.25,19.15,19.15,0,0,0,4.76-1.56A4.93,4.93,0,0,0,283.16,18Z"/></svg>