<svg id="Layer_1" data-name="Layer 1" xmlns="http://www.w3.org/2000/svg" viewBox="0 0 236.86 43.24"><defs><style>.cls-1{fill:#fed136;}</style></defs><title>navbar-logo2</title><path class="cls-1" d="M8.92,20.53A12,12,0,0,0,4.69,23a2.45,2.45,0,0,1-.57-1.6c0-1.14.78-2.09,2.3-2.87a12.07,12.07,0,0,1,3.52-.94l2.91-9.1a47.8,47.8,0,0,0,1.64-6.27,5.2,5.2,0,0,1,1.68-.33c1.6,0,2.38.65,2.38,2a12.63,12.63,0,0,1-.9,3.4c-1.35,3.53-2.62,6.85-3.73,10H14c1.93,0,4.59.08,8,.37l3.19-9.76a54.22,54.22,0,0,0,1.73-6,2.56,2.56,0,0,1,1.47-.37c1.64,0,2.71.74,2.71,2.21a19.11,19.11,0,0,1-1.31,4.39l-2.92,7.05c-.57,1.48-1.39,3.73-2.5,6.81-2.17,6.07-3.07,10.62-3,14.39a4.41,4.41,0,0,1-3.16-4.26,11.71,11.71,0,0,1,.49-3.9l2.79-8.86c-1.15,0-2.05-.08-2.7-.08a53.5,53.5,0,0,0-5.66.33q-4.42,13-5.21,19.23A4.27,4.27,0,0,1,5.1,34.64,16.44,16.44,0,0,1,6,29.1Z"/><path class="cls-1" d="M31.79,27.13a31,31,0,0,0-1.31,4.6c0,.57.08.86.37.86,1,0,2.42-1.52,4.22-4.51a29.27,29.27,0,0,0,3.61-8c1.6,0,3.08.16,3.24,1.8a12,12,0,0,1-1.76,4.8,11.51,11.51,0,0,0-1.81,4.59c0,.95.33,1.81,1.15,1.81s1.81-.62,3-1.85a22.22,22.22,0,0,0,3.4-4.55c.29.29.2,1.48-.29,2.26C43.11,33,40.69,35,38.35,35s-3.48-2.22-3.11-5.17c-1.93,3-3.65,4.47-5.21,4.47S27.78,33,27.78,31.07a40.67,40.67,0,0,1,2-9.43c.28-1,.49-1.85.61-2.46a5.35,5.35,0,0,1,1.68-.29c1.48,0,2.22.58,2.22,1.77A3.53,3.53,0,0,1,33.93,22L33.48,23Z"/><path class="cls-1" d="M68.94,31.15c-.66,1-1.19,1.72-1.64,2.26-.82,1-2.5,2.33-3.85,2.33-1.85,0-3-1.72-3-4.18,0-1.88.78-5,2.38-9.26a24.35,24.35,0,0,0-4.43,4.92,21.93,21.93,0,0,0-3.2,6.6c-1.59,0-2.33-.41-2.33-2.09,0-1.93.74-5.33,2.25-10.21a24.24,24.24,0,0,0-4.71,5.33,22.89,22.89,0,0,0-3.36,7c-1.6,0-2.34-.45-2.34-2.13a22.25,22.25,0,0,1,1.06-5.21,46.26,46.26,0,0,0,1.64-7.3,5.38,5.38,0,0,1,1.81-.41c1.19,0,1.8.49,1.8,1.52q0,1.29-1.84,6.27a26.63,26.63,0,0,1,2.46-3.44c1.64-2.26,3.69-3.94,5.29-3.94A1.67,1.67,0,0,1,58.65,21a5.77,5.77,0,0,1-.29,1.64l-.86,2.67c-.37,1.07-.65,1.8-.78,2.25q.87-1.41,2.71-3.81c2.09-2.58,3.81-3.89,5.16-3.89a1.74,1.74,0,0,1,1.89,1.88A7.56,7.56,0,0,1,66,23.77l-1.15,2.75a16.92,16.92,0,0,0-1.6,5.62c0,1.18.37,1.8,1.15,1.8,1.43,0,3.16-2,5.94-6.85a1.11,1.11,0,0,1,.37,1,2.46,2.46,0,0,1-.49,1.31Z"/><path class="cls-1" d="M83.37,33.49a5.57,5.57,0,0,1-3.56,1.64c-1.52,0-2.59-1.15-2.59-3.44A11.06,11.06,0,0,1,77.35,30c-1.81,2.83-3.7,4.27-5.62,4.27s-2.87-1.36-2.87-4.06a11,11,0,0,1,2.46-7c1.64-2.09,3.4-3.12,5.25-3.12a3.78,3.78,0,0,1,2.66,1.27c0-.36.12-.9.17-1.68a3.84,3.84,0,0,1,1.72-.41,1.83,1.83,0,0,1,2,2.05,15.22,15.22,0,0,1-1.56,5.13,14.92,14.92,0,0,0-1.56,5.41c0,.94.25,1.39.78,1.39.78,0,1.93-.73,3.44-2.17a25.65,25.65,0,0,0,3.24-4,.79.79,0,0,1,.25,1,7.76,7.76,0,0,1-.94,1.64A20.8,20.8,0,0,1,83.37,33.49ZM76,29.39A19.28,19.28,0,0,0,78.94,23l.13-.61a4.37,4.37,0,0,0-1.77,0,6.21,6.21,0,0,0-3.4,2.87,11.39,11.39,0,0,0-1.64,5.49,8.65,8.65,0,0,0,0,1.44C73.45,32.22,74.68,31.28,76,29.39Z"/><path class="cls-1" d="M98.38,33.32c1.52,0,3.65-2.09,6.48-6.23.53.37.45,1.19-.29,2.42a15.34,15.34,0,0,1-3.28,3.81,6.39,6.39,0,0,1-4,1.81c-1.6,0-2.91-1.27-2.91-3.69q0-3,2.58-9.84c-1.06.45-2.54,1.93-4.47,4.43a22.18,22.18,0,0,0-3.89,7.79c-1.48,0-2.3-.5-2.3-2.26a20.15,20.15,0,0,1,1.15-5.08,37.57,37.57,0,0,0,1.68-7.3,3.83,3.83,0,0,1,1.77-.41c1.14,0,1.72.53,1.72,1.56s-.66,3.11-1.93,6.23a15.15,15.15,0,0,1,2.46-3.4c2.17-2.67,4-4,5.45-4a1.76,1.76,0,0,1,1.93,1.8,10,10,0,0,1-.53,2.3l-.54,1.43L99,26l-.57,1.43a12.78,12.78,0,0,0-1,4.47C97.35,32.83,97.68,33.32,98.38,33.32Z"/><path class="cls-1" d="M114.74,32.67a5.75,5.75,0,0,1,.45-2.22c3.61-14,5.41-21.64,5.45-22.91a3,3,0,0,1,1.48-.33,2,2,0,0,1,2.29,2.21,14.43,14.43,0,0,1-1.1,4.63c-1.11,3.16-1.89,5.5-2.38,7s-1.11,3.69-1.81,6.51-1.31,5.66-1.76,8.57A3.36,3.36,0,0,1,114.74,32.67Zm16.52-13.74a11.58,11.58,0,0,1-6.44,4.23,32.84,32.84,0,0,0,3.77,7.42,14.43,14.43,0,0,0,4.92,4.84,4.1,4.1,0,0,1-3,1.92c-1.76,0-3.36-2-4.84-5.74a98.56,98.56,0,0,1-3.6-12,4.23,4.23,0,0,0,1.63.29,8.53,8.53,0,0,0,6.11-2.55,7.75,7.75,0,0,0,2.67-5.74,6.93,6.93,0,0,0-1.56-4.51,5.17,5.17,0,0,0-4.26-1.88,9.39,9.39,0,0,0-8,4.26,2.35,2.35,0,0,1-1.27-2.17,2.53,2.53,0,0,1,.74-1.8c1.27-1.81,4.1-2.75,7.09-2.75a8.38,8.38,0,0,1,6.56,2.58,8.86,8.86,0,0,1,2.34,6.27A11.42,11.42,0,0,1,131.26,18.93Z"/><path class="cls-1" d="M143.64,31.52a14.65,14.65,0,0,0,4.47-4.26,2.65,2.65,0,0,1-.57,2.78,12.24,12.24,0,0,1-2.79,2.67,11.52,11.52,0,0,1-6.27,2c-3.33,0-5.42-2.26-5.42-5.82a10.88,10.88,0,0,1,2.09-6.4c1.4-2,3-2.95,4.88-2.95a7.69,7.69,0,0,1,.82.08,2,2,0,0,1,1.23-.37c1.52,0,2.59,1.27,2.59,3.24a5.83,5.83,0,0,1-1.89,4.35A7.49,7.49,0,0,1,138.72,29c-.9.16-1.47,0-1.72-.41,3-.94,4.88-3.24,4.88-5.49a3,3,0,0,0-.37-1.48,6.1,6.1,0,0,0-3.77,3.12,10.24,10.24,0,0,0-1.44,5.12c0,2.09.9,3.16,2.67,3.16A9,9,0,0,0,143.64,31.52Z"/><path class="cls-1" d="M150.82,25.37a1.82,1.82,0,0,0,.77,1.44c.17.12.62.32.78.45s.78.32.91.37c1.6.77,2.21,1.43,2.21,2.62,0,2.25-2.46,4.14-5.62,5.29a15.3,15.3,0,0,1-4.55.94,2.39,2.39,0,0,1-1.47-.37,18.8,18.8,0,0,0,5.65-1.88c2.09-1.07,3.16-2,3.2-2.91,0-.66-.78-1.4-2.38-2.22a9.34,9.34,0,0,1-2.17-1.31,2.57,2.57,0,0,1-.94-2.17A6.34,6.34,0,0,1,149.54,21a7.32,7.32,0,0,1,4.88-2.17c1.27,0,2.22.49,2.18,1.48A5,5,0,0,1,155.49,23c-.74,1.07-1.39,1.68-2,1.81a13.3,13.3,0,0,1,.74-3.73C152.13,22.25,150.82,24,150.82,25.37Z"/><path class="cls-1" d="M169.76,23.69c.9,0,1.35.66,1.35,2a8.64,8.64,0,0,1-.41,2.5h.08c2.5,0,4.6-1.39,6.28-4.18.12,0,.12.37-.05.9a6.82,6.82,0,0,1-2.82,3.81,7.79,7.79,0,0,1-4.31,1.44c-1.31,2.62-3.48,4.47-5.94,4.47-2.67,0-4.47-2.14-4.47-5.78a10.35,10.35,0,0,1,2.21-6.65,6.61,6.61,0,0,1,5.25-2.78c1.76,0,2.83.82,2.83,1.92a5.82,5.82,0,0,0-4.92,2.75,9.74,9.74,0,0,0-1.93,5.7c0,2,.7,3,2.05,3s2.54-1,3.65-2.91a2.83,2.83,0,0,1-1.31-2.79C167.3,25.21,168.4,23.69,169.76,23.69Z"/><path class="cls-1" d="M178.78,27.13a33.2,33.2,0,0,0-1.32,4.6c0,.57.09.86.37.86,1,0,2.42-1.52,4.23-4.51a29.89,29.89,0,0,0,3.61-8c1.59,0,3.07.16,3.23,1.8a12,12,0,0,1-1.76,4.8,11.29,11.29,0,0,0-1.8,4.59c0,.95.33,1.81,1.15,1.81s1.8-.62,3-1.85a21.86,21.86,0,0,0,3.4-4.55,2.46,2.46,0,0,1-.29,2.26c-2.54,4.06-5,6.11-7.29,6.11s-3.49-2.22-3.12-5.17c-1.93,3-3.65,4.47-5.21,4.47s-2.25-1.27-2.25-3.24a41.22,41.22,0,0,1,2-9.43c.28-1,.49-1.85.61-2.46a5.35,5.35,0,0,1,1.68-.29c1.48,0,2.22.58,2.22,1.77a3.34,3.34,0,0,1-.37,1.31L180.46,23Z"/><path class="cls-1" d="M204.36,20.94a6.54,6.54,0,0,1-1.19,3.53c-.78,1.35-1.52,2.09-2.21,2.3a21.35,21.35,0,0,1,.49-4.64c-1.64,1.19-2.62,2.42-4.31,5.21a39.4,39.4,0,0,0-3.28,7c-1.35,0-2.13-.41-2.17-1.85a27,27,0,0,1,1.44-6.6,49.69,49.69,0,0,0,1.6-6.39,4.7,4.7,0,0,1,1.64-.33c1.1,0,1.68.49,1.76,1.47s-.53,2.75-1.68,5.75a24.8,24.8,0,0,1,3.4-4.76c1.27-1.35,2.26-2.05,3-2.05A1.46,1.46,0,0,1,204.36,20.94Z"/><path class="cls-1" d="M216.17,21.68a5.37,5.37,0,0,1-1.19,3,4,4,0,0,1-2.21,1.85,15.49,15.49,0,0,1,.94-4.31,6.71,6.71,0,0,0-4,3,8.69,8.69,0,0,0-1.47,4.8c0,2,.82,2.95,2.41,2.95,2.63,0,5.87-2.22,8.37-5.78.57,1.06,0,2.46-1.76,4.14A10.18,10.18,0,0,1,210,34.76c-3.32,0-5.17-2.38-5.17-5.66a9.27,9.27,0,0,1,2.67-6.52,7.94,7.94,0,0,1,5.86-2.83C215.23,19.75,216.17,20.41,216.17,21.68Z"/><path class="cls-1" d="M228.8,31.52a14.65,14.65,0,0,0,4.47-4.26,2.67,2.67,0,0,1-.58,2.78,12.24,12.24,0,0,1-2.79,2.67,11.52,11.52,0,0,1-6.27,2c-3.32,0-5.41-2.26-5.41-5.82a10.88,10.88,0,0,1,2.09-6.4c1.39-2,3-2.95,4.88-2.95a8.21,8.21,0,0,1,.82.08,2,2,0,0,1,1.23-.37c1.52,0,2.58,1.27,2.58,3.24a5.82,5.82,0,0,1-1.88,4.35A7.53,7.53,0,0,1,223.88,29c-.91.16-1.48,0-1.73-.41,3-.94,4.88-3.24,4.88-5.49a3.09,3.09,0,0,0-.36-1.48,6.14,6.14,0,0,0-3.78,3.12,10.33,10.33,0,0,0-1.43,5.12c0,2.09.9,3.16,2.66,3.16A9,9,0,0,0,228.8,31.52Z"/></svg>