<?xml version="1.0" standalone="no"?>
<!DOCTYPE svg PUBLIC "-//W3C//DTD SVG 20010904//EN"
 "http://www.w3.org/TR/2001/REC-SVG-20010904/DTD/svg10.dtd">
<svg version="1.0" xmlns="http://www.w3.org/2000/svg"
 width="700.000000pt" height="700.000000pt" viewBox="0 0 700.000000 700.000000"
 preserveAspectRatio="xMidYMid meet">
<metadata>
Created by potrace 1.14, written by Peter Selinger 2001-2017
</metadata>
<g transform="translate(0.000000,700.000000) scale(0.100000,-0.100000)"
fill="#000000" stroke="none">
<path d="M500 6980 c-223 -57 -397 -221 -472 -445 l-23 -70 0 -750 c0 -823 -4
-774 59 -837 108 -107 298 -69 359 71 8 18 11 243 12 728 2 636 4 706 19 747
20 53 78 109 132 126 29 10 204 13 744 14 l705 1 45 30 c84 57 121 142 101
230 -20 84 -74 143 -152 165 -21 6 -308 10 -744 9 -665 0 -715 -2 -785 -19z"/>
<path d="M4944 6981 c-50 -23 -111 -93 -125 -144 -24 -91 17 -188 104 -245
l42 -27 707 -1 c640 -1 712 -3 752 -18 53 -20 109 -78 126 -132 10 -29 13
-204 14 -743 l1 -706 27 -42 c101 -155 311 -144 389 22 17 38 18 78 18 755 0
784 1 782 -60 917 -74 166 -210 287 -399 354 l-65 23 -745 3 c-710 3 -747 2
-786 -16z"/>
<path d="M3428 6125 c-2 -2 -33 -5 -69 -9 -368 -33 -733 -253 -944 -568 -85
-126 -169 -314 -192 -428 -28 -139 -31 -179 -29 -335 3 -130 8 -190 24 -255
61 -253 178 -466 349 -637 92 -92 120 -115 216 -177 101 -66 145 -88 257 -131
148 -56 273 -79 445 -79 179 -1 245 7 392 50 338 98 634 347 796 669 341 680
33 1503 -672 1800 -87 37 -254 81 -343 90 -60 7 -226 14 -230 10z"/>
<path d="M3427 3064 c-1 -1 -72 -4 -157 -8 -198 -9 -239 -12 -450 -41 -30 -5
-150 -26 -216 -39 -171 -34 -387 -102 -564 -178 -543 -232 -936 -638 -1099
-1135 -37 -111 -43 -138 -58 -238 -17 -118 -2 -248 37 -325 54 -106 180 -194
310 -216 58 -10 4481 -10 4540 0 129 22 257 111 308 214 87 174 46 474 -108
783 -42 85 -151 265 -169 279 -4 3 -24 28 -46 55 -106 136 -304 308 -480 419
-277 175 -691 323 -1035 371 -14 2 -38 6 -55 8 -72 12 -162 23 -265 32 -100 9
-487 23 -493 19z"/>
<path d="M150 2175 c-55 -17 -106 -65 -132 -122 -17 -39 -18 -81 -18 -755 1
-616 3 -723 17 -783 53 -232 215 -409 448 -487 l70 -23 750 0 c695 0 752 1
782 17 86 48 135 150 114 240 -15 68 -48 113 -106 145 l-50 28 -700 1 c-767 1
-748 -1 -816 61 -74 67 -71 39 -73 825 -2 495 -5 711 -13 729 -44 103 -165
158 -273 124z"/>
<path d="M6720 2178 c-48 -13 -95 -51 -128 -101 l-27 -42 -1 -705 c-1 -536 -4
-715 -14 -744 -17 -52 -66 -106 -120 -129 -44 -20 -68 -20 -750 -22 -784 -1
-745 2 -808 -70 -18 -20 -38 -49 -44 -64 -31 -81 -11 -174 50 -234 73 -71 29
-68 855 -65 l742 3 73 27 c106 39 174 81 245 151 106 104 154 187 188 327 18
70 19 125 16 800 -2 657 -4 728 -19 756 -28 51 -80 94 -132 109 -56 17 -76 17
-126 3z"/>
</g>
</svg>
